<?xml version="1.0" encoding="utf-8"?>
<!-- Generator: Adobe Illustrator 15.1.0, SVG Export Plug-In . SVG Version: 6.00 Build 0)  -->
<!DOCTYPE svg PUBLIC "-//W3C//DTD SVG 1.1 Basic//EN" "http://www.w3.org/Graphics/SVG/1.1/DTD/svg11-basic.dtd">
<svg version="1.1" baseProfile="basic" xmlns="http://www.w3.org/2000/svg" xmlns:xlink="http://www.w3.org/1999/xlink" x="0px"
	 y="0px" width="52px" height="52px" viewBox="0 0 52 52" xml:space="preserve">
<g id="ER" display="none">
	<g id="_x3C_ER_x3E_" display="inline">
		<path fill-rule="evenodd" clip-rule="evenodd" fill="#FFFFFF" d="M39.434,15.102v0.006H12.401v5.424h27.032v5.424H12.401v5.423
			h21.856v5.004c0,5.801,5.537,5.889,5.537,5.889V31.35c4.922-0.41,5.162-5.067,5.172-5.378h0.006v-10.87H39.434z M12.419,9.728
			H7.027v5.374h5.393V9.728z M12.401,42.227h10.405c5.801,0,5.891-5.424,5.891-5.424H12.401V42.227z"/>
	</g>
</g>
<g id="ER.fr">
	<rect fill-rule="evenodd" clip-rule="evenodd" fill="#ED1C24" width="52" height="52"/>
	<g id="_x2E_fr">
		<circle id="rond" fill-rule="evenodd" clip-rule="evenodd" fill="#FFFFFF" cx="26" cy="40.688" r="6.18"/>
		<path fill="#ED1C24" d="M27.011,35.942l0.054,0.072c0.027-0.018,0.077-0.04,0.148-0.066c0.07-0.025,0.15-0.037,0.238-0.034
			c0.2,0.034,0.356,0.219,0.471,0.557c0.113,0.337,0.165,0.696,0.153,1.078c-0.008,0.257-0.046,0.473-0.114,0.648
			c-0.067,0.175-0.163,0.282-0.285,0.32c-0.131-0.005-0.27-0.06-0.416-0.166c-0.146-0.108-0.273-0.275-0.38-0.506
			c-0.107-0.229-0.17-0.499-0.189-0.806c-0.101,0.09-0.214,0.19-0.338,0.301c-0.125,0.11-0.271,0.264-0.438,0.458
			c-0.167,0.196-0.316,0.402-0.449,0.617c-0.132,0.216-0.273,0.501-0.424,0.856l1.451-0.077l0.236,0.295l0.253,0.21l-0.039,0.384
			c-0.015-0.001-0.857,0.161-2.527,0.484c0.014,0.001-0.577,1.114-1.773,3.342c-0.144,0.275-0.314,0.604-0.512,0.984
			c-0.052,0.101-0.192,0.369-0.222,0.427c-0.223-0.165-0.873-0.883-1.102-1.279c0.122-0.199,0.329-0.561,0.622-1.081
			c0.476-0.847,0.871-1.553,1.187-2.117c-0.104,0.006-0.293,0.064-0.573,0.176c-0.278,0.11-0.497,0.163-0.655,0.159
			c-0.133-0.224-0.198-0.396-0.195-0.518c-0.007-0.079-0.047-0.138-0.121-0.175c-0.074-0.037-0.139-0.077-0.196-0.121
			c-0.057-0.045-0.086-0.126-0.087-0.248c0.585-0.229,1.099-0.393,1.541-0.489c0.441-0.097,0.758-0.157,0.95-0.185
			c0.191-0.456,0.486-0.985,0.884-1.587s0.816-1.117,1.253-1.544c0.437-0.429,0.812-0.638,1.125-0.629
			C26.732,35.689,26.89,35.775,27.011,35.942z"/>
		<path fill="#ED1C24" d="M28.188,42.207c0.279-0.244,0.698-0.529,1.263-0.854c0.563-0.326,0.991-0.537,1.289-0.631
			c0.093,0.04,0.158,0.091,0.196,0.149c0.038,0.06,0.065,0.129,0.084,0.208c0.02,0.08,0.043,0.18,0.072,0.296
			c0.018,0.044,0.061,0.104,0.128,0.186c0.066,0.081,0.115,0.147,0.145,0.197c0.028,0.048,0.042,0.097,0.041,0.145
			c-0.001,0.055-0.013,0.097-0.031,0.124c-0.818,0.348-1.44,0.622-1.864,0.821c-0.424,0.198-0.813,0.422-1.165,0.667
			c-0.354,0.246-0.642,0.507-0.864,0.785c-0.224,0.345-1.27,2.526-1.27,2.526c-0.006,0.014-0.012,0.027-0.02,0.039
			c-0.543,0.032-1.129-0.053-1.521-0.14c0.022-0.063,0.144-0.411,0.236-0.669c0.194-0.537,0.451-1.163,0.771-1.881
			c0.25-0.55,0.564-1.203,0.944-1.956c0.38-0.751,0.577-1.128,0.591-1.128c0.066-0.049,0.14-0.071,0.219-0.07
			c0.07,0.003,0.146,0.006,0.228,0.011s0.179,0.011,0.291,0.021c0.042-0.01,0.138-0.059,0.287-0.149
			c0.151-0.092,0.276-0.136,0.379-0.134c0.08,0.003,0.155,0.026,0.229,0.071C28.682,41.145,28.462,41.601,28.188,42.207z"/>
	</g>
	<g id="ER_1_">
		<g id="_x3C_ER_x3E__1_">
			<path fill-rule="evenodd" clip-rule="evenodd" fill="#FFFFFF" d="M35.898,8.287v0.005H15.981v3.997h19.917v3.996H15.981v3.997
				h16.103v3.687c0,4.274,4.081,4.338,4.081,4.338V20.26c3.627-0.302,3.803-3.733,3.81-3.963h0.005v-8.01H35.898z M15.994,4.328
				h-3.973v3.959h3.973V4.328z M15.981,28.274h7.667c4.274,0,4.34-3.997,4.34-3.997H15.981V28.274z"/>
		</g>
	</g>
</g>
<g id="repères">
</g>
</svg>
