<?xml version="1.0" encoding="utf-8"?>
<!-- Generator: Adobe Illustrator 15.1.0, SVG Export Plug-In . SVG Version: 6.00 Build 0)  -->
<!DOCTYPE svg PUBLIC "-//W3C//DTD SVG 1.1//EN" "http://www.w3.org/Graphics/SVG/1.1/DTD/svg11.dtd">
<svg version="1.1" xmlns="http://www.w3.org/2000/svg" xmlns:xlink="http://www.w3.org/1999/xlink" x="0px" y="0px" width="400px"
	 height="70px" viewBox="0 0 400 70" enable-background="new 0 0 400 70" xml:space="preserve">
<g id="filtre" display="none">
	<rect x="-0.835" display="inline" opacity="0.4" width="400.835" height="70"/>
</g>
<g id="f" display="none">
	
		<image display="inline" overflow="visible" width="8598" height="5732" xlink:href="../../../../../../Matières téléchargées/Transformeur/radio/shutterstock_242268694.jpg"  transform="matrix(-0.047 0 0 0.047 403.8945 -126.8789)">
	</image>
	<g id="Calque_4" display="inline">
		<rect x="-0.267" y="-2.281" fill="#02CBD2" width="404.164" height="75.527"/>
	</g>
	<g display="inline">
		<g>
			<path fill="#FFFFFF" d="M51.792,17.307L47.221,17.3c-5.135,0-8.455,3.406-8.455,8.675v4h-4.597c-0.396,0-0.718,0.32-0.718,0.718
				v5.796c0,0.396,0.322,0.719,0.718,0.719h4.597v14.623c0,0.396,0.322,0.719,0.72,0.719h5.995c0.397,0,0.72-0.323,0.72-0.719
				V37.208h5.374c0.397,0,0.718-0.323,0.718-0.719l0.004-5.796c0-0.189-0.077-0.373-0.211-0.508
				c-0.134-0.134-0.317-0.209-0.509-0.209H46.2v-3.391c0-1.63,0.388-2.457,2.51-2.457l3.08-0.002c0.397,0,0.718-0.322,0.718-0.718
				v-5.381C52.508,17.629,52.188,17.309,51.792,17.307L51.792,17.307z M51.792,17.307"/>
		</g>
	</g>
	
		<text transform="matrix(1 0 0 1 145.9814 42.8984)" display="inline" fill="#FFFFFF" font-family="'XtreemThinDemo'" font-size="44">facebook</text>
</g>
<g id="t" display="none">
	
		<image display="inline" overflow="visible" width="7328" height="5456" xlink:href="../../../../../../Matières téléchargées/Transformeur/radio/shutterstock_175114280.jpg"  transform="matrix(0.0546 0 0 0.0546 -0.3701 -91.6431)">
	</image>
	<g id="Calque_4_-_copie" display="inline">
		<rect x="-0.267" y="-2.281" fill="#02CBD2" width="404.164" height="75.527"/>
	</g>
	
		<text transform="matrix(1 0 0 1 225.5684 46.5752)" display="inline" fill="#FFFFFF" font-family="'XtreemThinDemo'" font-size="44">twitter</text>
	<g display="inline">
		<path fill="#FFFFFF" d="M62.431,22.041c-1.5,0.663-3.125,1.125-4.824,1.325c1.737-1.038,3.062-2.687,3.699-4.651
			c-1.625,0.962-3.424,1.664-5.349,2.038c-1.525-1.625-3.712-2.648-6.125-2.648c-4.636,0-8.398,3.762-8.398,8.399
			c0,0.662,0.075,1.299,0.212,1.912c-6.986-0.35-13.173-3.688-17.322-8.775c-0.726,1.237-1.137,2.688-1.137,4.226
			c0,2.912,1.487,5.487,3.736,6.987c-1.375-0.038-2.662-0.425-3.799-1.05v0.1c0,4.075,2.899,7.474,6.736,8.249
			c-0.699,0.188-1.449,0.287-2.211,0.287c-0.538,0-1.063-0.05-1.588-0.149c1.075,3.337,4.175,5.762,7.85,5.837
			c-2.875,2.249-6.499,3.587-10.437,3.587c-0.674,0-1.337-0.038-2-0.112c3.725,2.387,8.136,3.774,12.886,3.774
			c15.449,0,23.898-12.799,23.898-23.897l-0.025-1.087C59.881,25.203,61.306,23.728,62.431,22.041L62.431,22.041z M62.431,22.041"/>
	</g>
</g>
<g id="insta" display="none">
	
		<image display="inline" overflow="visible" width="8100" height="5400" xlink:href="../../../../../../Matières téléchargées/Transformeur/radio/shutterstock_166649072.jpg"  transform="matrix(0.0499 0 0 0.0499 -0.2476 -146.4082)">
	</image>
	<g id="Calque_4_-_copie_2" display="inline">
		<rect x="-0.267" y="-2.281" fill="#02CBD2" width="404.164" height="75.527"/>
	</g>
	
		<text transform="matrix(1 0 0 1 75.3423 45.6455)" display="inline" fill="#FFFFFF" font-family="'XtreemThinDemo'" font-size="44">instagram</text>
	<g id="Calque_10" display="inline">
		<g>
			<path fill="#FFFFFF" d="M62.705,17.485c-0.929-0.927-2.039-1.391-3.333-1.391H32.003c-1.294,0-2.404,0.464-3.331,1.391
				c-0.926,0.926-1.39,2.037-1.39,3.331v27.369c0,1.294,0.464,2.404,1.39,3.331c0.927,0.928,2.037,1.391,3.331,1.391h27.369
				c1.294,0,2.404-0.463,3.331-1.391c0.928-0.927,1.391-2.037,1.391-3.331V20.815C64.093,19.521,63.631,18.411,62.705,17.485
				L62.705,17.485z M40.499,29.358c1.446-1.397,3.184-2.097,5.213-2.097c2.044,0,3.791,0.699,5.235,2.097
				c1.447,1.399,2.169,3.088,2.169,5.071c0,1.98-0.722,3.668-2.169,5.067c-1.445,1.399-3.19,2.097-5.235,2.097
				c-2.029,0-3.767-0.699-5.213-2.097c-1.445-1.398-2.169-3.087-2.169-5.067C38.33,32.446,39.054,30.758,40.499,29.358
				L40.499,29.358z M59.923,47.202c0,0.415-0.144,0.763-0.431,1.043c-0.289,0.279-0.632,0.42-1.031,0.42h-25.62
				c-0.415,0-0.763-0.141-1.042-0.42c-0.28-0.28-0.42-0.628-0.42-1.043V31.673h3.379c-0.319,1.005-0.48,2.052-0.48,3.138
				c0,3.068,1.119,5.686,3.355,7.851c2.238,2.164,4.929,3.247,8.078,3.247c2.077,0,3.995-0.496,5.751-1.485
				c1.758-0.991,3.147-2.337,4.171-4.039c1.022-1.702,1.534-3.56,1.534-5.573c0-1.085-0.161-2.131-0.48-3.138h3.234V47.202z
				 M59.923,25.801c0,0.462-0.159,0.854-0.479,1.173c-0.319,0.321-0.711,0.48-1.173,0.48H54.1c-0.463,0-0.855-0.159-1.174-0.48
				c-0.32-0.319-0.479-0.71-0.479-1.173v-3.955c0-0.448,0.159-0.836,0.479-1.163c0.319-0.328,0.711-0.492,1.174-0.492h4.171
				c0.462,0,0.854,0.164,1.173,0.492c0.32,0.327,0.479,0.715,0.479,1.163V25.801z M59.923,25.801"/>
		</g>
	</g>
</g>
<g id="youtube">
	
		<image overflow="visible" width="4984" height="6286" xlink:href="../../../../../../Matières téléchargées/Transformeur/radio/shutterstock_162199631.jpg"  transform="matrix(0.0817 0 0 0.0817 -3.1079 -432.3647)">
	</image>
	<g id="Calque_4_-_copie_3">
		<rect x="-0.267" y="-2.281" fill="#02CBD2" width="404.164" height="75.527"/>
	</g>
	<text transform="matrix(1 0 0 1 252.6943 34.5)" fill="#FFFFFF" font-family="'XtreemThinDemo'" font-size="38">youtube</text>
	<g>
		<path fill="#FFFFFF" d="M57.123,43.252h-2.178l0.011-1.264c0-0.563,0.46-1.023,1.024-1.023h0.141c0.563,0,1.025,0.461,1.025,1.023
			L57.123,43.252z M48.955,40.541c-0.551,0-1.004,0.373-1.004,0.826v6.15c0,0.453,0.453,0.824,1.004,0.824
			c0.555,0,1.008-0.371,1.008-0.824v-6.15C49.963,40.914,49.51,40.541,48.955,40.541L48.955,40.541z M62.219,37.103v11.7
			c0,2.807-2.436,5.104-5.41,5.104H34.565c-2.977,0-5.409-2.297-5.409-5.104v-11.7c0-2.808,2.433-5.104,5.409-5.104h22.243
			C59.783,31.998,62.219,34.295,62.219,37.103L62.219,37.103z M36.049,50.072V37.748h2.757v-1.825l-7.351-0.011v1.795l2.295,0.007
			v12.358H36.049z M44.314,39.584h-2.299v6.582c0,0.951,0.058,1.426-0.003,1.594c-0.187,0.512-1.026,1.053-1.355,0.057
			c-0.054-0.174-0.007-0.701-0.007-1.605l-0.009-6.627h-2.285l0.006,6.521c0.002,1-0.023,1.746,0.009,2.086
			c0.056,0.598,0.034,1.295,0.59,1.693c1.035,0.744,3.018-0.111,3.513-1.178l-0.004,1.361l1.847,0.002V39.584H44.314z
			 M51.669,47.121l-0.004-5.48c-0.003-2.086-1.565-3.335-3.685-1.648l0.01-4.071l-2.297,0.004l-0.011,14.058l1.888-0.029
			l0.173-0.875C50.156,51.293,51.674,49.775,51.669,47.121L51.669,47.121z M58.865,46.395l-1.725,0.01
			c-0.002,0.066-0.004,0.146-0.004,0.232V47.6c0,0.514-0.427,0.932-0.943,0.932h-0.338c-0.517,0-0.942-0.418-0.942-0.932v-2.531
			h3.947v-1.486c0-1.084-0.028-2.17-0.116-2.791c-0.284-1.963-3.039-2.274-4.432-1.27c-0.438,0.314-0.771,0.734-0.965,1.299
			c-0.195,0.564-0.293,1.336-0.293,2.316v3.266C53.055,51.832,59.65,51.064,58.865,46.395L58.865,46.395z M50.022,28.662
			c0.118,0.286,0.302,0.521,0.554,0.697c0.245,0.175,0.562,0.261,0.939,0.261c0.332,0,0.625-0.088,0.881-0.273
			c0.254-0.186,0.469-0.458,0.644-0.824l-0.043,0.901h2.563V18.526h-2.017v8.48c0,0.461-0.379,0.835-0.842,0.835
			c-0.46,0-0.839-0.374-0.839-0.835v-8.48h-2.105v7.351c0,0.937,0.018,1.561,0.045,1.877C49.831,28.067,49.904,28.369,50.022,28.662
			L50.022,28.662z M42.256,22.507c0-1.047,0.089-1.862,0.261-2.452c0.175-0.588,0.488-1.059,0.943-1.414
			c0.451-0.357,1.03-0.536,1.736-0.536c0.592,0,1.101,0.116,1.524,0.344c0.428,0.229,0.756,0.525,0.983,0.894
			c0.233,0.368,0.39,0.747,0.476,1.135c0.084,0.394,0.127,0.985,0.127,1.784v2.758c0,1.009-0.041,1.754-0.118,2.225
			c-0.077,0.475-0.245,0.913-0.506,1.324c-0.256,0.409-0.586,0.713-0.986,0.906c-0.404,0.198-0.867,0.292-1.39,0.292
			c-0.584,0-1.076-0.079-1.481-0.249c-0.406-0.165-0.721-0.419-0.944-0.756c-0.227-0.335-0.386-0.744-0.482-1.221
			c-0.097-0.478-0.143-1.194-0.143-2.147V22.507z M44.263,26.835c0,0.617,0.46,1.121,1.02,1.121s1.017-0.504,1.017-1.121v-5.801
			c0-0.615-0.457-1.12-1.017-1.12s-1.02,0.505-1.02,1.12V26.835z M37.172,29.765h2.418l0.002-8.358l2.856-7.159h-2.644l-1.52,5.316
			l-1.539-5.331h-2.617l3.039,7.178L37.172,29.765z M37.172,29.765"/>
	</g>
</g>
<g id="soundcloud" display="none">
	
		<image display="inline" overflow="visible" width="5760" height="3840" xlink:href="../../../../../../Matières téléchargées/Transformeur/radio/shutterstock_214670323.jpg"  transform="matrix(0.0711 0 0 0.0711 -4.1392 -166.1514)">
	</image>
	<g id="Calque_4_-_copie_4" display="inline">
		<rect x="-0.267" y="-2.281" fill="#02CBD2" width="404.164" height="75.527"/>
	</g>
	
		<text transform="matrix(1 0 0 1 137.2998 59.8799)" display="inline" fill="#FFFFFF" font-family="'XtreemThinDemo'" font-size="38">soundcloud</text>
	<g id="Calque_15" display="inline">
		<g>
			<path fill="#FFFFFF" d="M16.255,23.417c-0.14,0-0.254,0.111-0.271,0.263l-0.641,5.855l0.641,5.72
				c0.017,0.153,0.131,0.263,0.271,0.263c0.137,0,0.251-0.107,0.271-0.263l0.729-5.72l-0.729-5.855
				C16.506,23.524,16.392,23.417,16.255,23.417L16.255,23.417z M16.255,23.417"/>
			<path fill="#FFFFFF" d="M13.847,25.658c-0.137,0-0.244,0.104-0.26,0.258l-0.479,3.619l0.479,3.556
				c0.016,0.15,0.123,0.254,0.26,0.254c0.131,0,0.238-0.104,0.261-0.254l0.563-3.556l-0.563-3.622
				C14.085,25.762,13.978,25.658,13.847,25.658L13.847,25.658z M13.847,25.658"/>
			<path fill="#FFFFFF" d="M18.815,22.271c-0.172,0-0.309,0.133-0.325,0.319l-0.608,6.944l0.608,6.687
				c0.017,0.189,0.153,0.319,0.325,0.319c0.17,0,0.307-0.134,0.326-0.319l0.689-6.69l-0.689-6.941
				C19.122,22.404,18.985,22.271,18.815,22.271L18.815,22.271z M18.815,22.271"/>
			<path fill="#FFFFFF" d="M21.396,22.023c-0.202,0-0.368,0.163-0.384,0.377l-0.573,7.134l0.573,6.901
				c0.016,0.212,0.182,0.375,0.384,0.375c0.198,0,0.364-0.163,0.381-0.375l0.653-6.901l-0.653-7.137
				C21.761,22.186,21.595,22.023,21.396,22.023L21.396,22.023z M21.396,22.023"/>
			<path fill="#FFFFFF" d="M24.436,22.915c-0.017-0.244-0.205-0.429-0.439-0.429s-0.423,0.185-0.436,0.432l-0.544,6.616l0.544,6.956
				c0.013,0.248,0.201,0.434,0.436,0.434s0.423-0.186,0.439-0.434l0.615-6.956L24.436,22.915z M24.436,22.915"/>
			<path fill="#FFFFFF" d="M26.622,18.282c-0.267,0-0.481,0.215-0.494,0.488L25.62,29.537l0.508,6.957
				c0.013,0.273,0.23,0.484,0.494,0.484c0.261,0,0.476-0.211,0.491-0.484l0.576-6.957L27.113,18.77
				C27.098,18.497,26.883,18.282,26.622,18.282L26.622,18.282z M26.622,18.282"/>
			<path fill="#FFFFFF" d="M29.223,15.802c-0.293,0-0.534,0.241-0.547,0.544c0,0.003-0.479,13.23-0.479,13.23l0.479,6.91
				c0.013,0.305,0.254,0.545,0.547,0.545c0.292,0,0.536-0.24,0.55-0.545v0.004l0.54-6.914l-0.54-13.23
				C29.759,16.042,29.515,15.802,29.223,15.802L29.223,15.802z M29.223,15.802"/>
			<path fill="#FFFFFF" d="M31.93,14.608c-0.329,0-0.596,0.263-0.605,0.599l-0.442,14.334l0.442,6.842
				c0.013,0.333,0.276,0.596,0.605,0.596c0.325,0,0.589-0.263,0.605-0.598v0.002l0.497-6.842l-0.497-14.334
				C32.519,14.871,32.255,14.608,31.93,14.608L31.93,14.608z M31.93,14.608"/>
			<path fill="#FFFFFF" d="M35.274,14.725c-0.013-0.367-0.303-0.657-0.66-0.657c-0.361,0-0.651,0.29-0.661,0.657l-0.409,14.816
				l0.409,6.801c0.01,0.364,0.3,0.65,0.661,0.65c0.357,0,0.647-0.286,0.66-0.654l0.462-6.797L35.274,14.725z M35.274,14.725"/>
			<path fill="#FFFFFF" d="M37.321,14.393c-0.394,0-0.706,0.313-0.716,0.712l-0.377,14.438l0.377,6.733
				c0.01,0.397,0.322,0.71,0.716,0.71c0.391,0,0.703-0.313,0.716-0.713v0.006l0.423-6.739l-0.423-14.438
				C38.024,14.706,37.712,14.393,37.321,14.393L37.321,14.393z M37.321,14.393"/>
			<path fill="#FFFFFF" d="M40.048,14.865c-0.423,0-0.765,0.338-0.771,0.768l-0.345,13.911l0.345,6.694
				c0.006,0.425,0.348,0.761,0.771,0.761c0.424,0,0.762-0.336,0.771-0.768v0.007l0.388-6.694l-0.388-13.911
				C40.81,15.203,40.472,14.865,40.048,14.865L40.048,14.865z M40.048,14.865"/>
			<path fill="#FFFFFF" d="M43.254,12.307c-0.131-0.087-0.29-0.14-0.456-0.14s-0.318,0.049-0.445,0.133
				c-0.229,0.15-0.378,0.404-0.381,0.69l-0.004,0.157l-0.312,16.394c0,0.009,0.315,6.655,0.315,6.655c0,0.01,0,0.019,0,0.025
				c0.01,0.186,0.081,0.358,0.191,0.495c0.153,0.179,0.381,0.295,0.635,0.295c0.225,0,0.43-0.091,0.576-0.241
				c0.149-0.148,0.247-0.354,0.25-0.581l0.033-0.657l0.315-5.988L43.624,12.99C43.618,12.708,43.472,12.457,43.254,12.307
				L43.254,12.307z M43.254,12.307"/>
			<g>
				<path fill="#FFFFFF" d="M45.983,10.738c-0.133-0.081-0.286-0.126-0.449-0.126c-0.211,0-0.406,0.075-0.556,0.202
					c-0.199,0.163-0.326,0.407-0.329,0.681v0.091l-0.361,17.961l0.186,3.32l0.176,3.231c0.007,0.481,0.403,0.874,0.885,0.874
					c0.479,0,0.876-0.393,0.882-0.881v0.01l0.391-6.554l-0.391-18.056C46.41,11.171,46.237,10.892,45.983,10.738L45.983,10.738z
					 M45.983,10.738"/>
				<path fill="#FFFFFF" d="M70.252,21.002c-1.097,0-2.145,0.221-3.098,0.622c-0.642-7.224-6.697-12.889-14.083-12.889
					c-1.81,0-3.57,0.354-5.129,0.956c-0.605,0.235-0.765,0.476-0.771,0.944V36.07c0.007,0.488,0.388,0.872,0.866,0.918
					c0.022,0.004,22.215,0,22.215,0c4.429,0,8.015-3.546,8.015-7.975C78.267,24.587,74.678,21.002,70.252,21.002L70.252,21.002z
					 M70.252,21.002"/>
			</g>
		</g>
	</g>
</g>
<g id="pinterest" display="none">
	
		<image display="inline" overflow="visible" width="5000" height="3337" xlink:href="../../../../../../Matières téléchargées/Transformeur/radio/shutterstock_196771787.jpg"  transform="matrix(0.0816 0 0 0.0816 -4.0659 -110.7549)">
	</image>
	<g id="Calque_4_-_copie_5" display="inline">
		<rect x="-0.267" y="-2.281" fill="#02CBD2" width="404.164" height="75.527"/>
	</g>
	
		<text transform="matrix(1 0 0 1 250.2852 34.3208)" display="inline" fill="#FFFFFF" font-family="'XtreemThinDemo'" font-size="38">pinterest</text>
	<g id="Calque_19" display="inline">
		<g>
			<g>
				<path fill="#FFFFFF" d="M58.997,27.256c-0.948-6.887-7.824-10.402-15.149-9.581c-5.802,0.649-11.572,5.333-11.816,12.04
					c-0.149,4.088,1.011,7.153,4.908,8.014c1.681-2.978-0.545-3.628-0.894-5.789c-1.427-8.836,10.187-14.863,16.266-8.697
					c4.214,4.279,1.437,17.416-5.344,16.042c-6.504-1.299,3.183-11.752-2.001-13.807c-4.216-1.671-6.462,5.099-4.462,8.463
					c-1.169,5.791-3.693,11.241-2.671,18.502c3.313-2.406,4.429-7.016,5.344-11.816c1.672,1.011,2.565,2.064,4.682,2.235
					C55.697,43.458,60.072,35.038,58.997,27.256L58.997,27.256z M58.997,27.256"/>
			</g>
		</g>
	</g>
</g>
<g id="Calque_7">
</g>
<g id="repères">
</g>
</svg>
