<?xml version="1.0" encoding="utf-8"?>
<!-- Generator: Adobe Illustrator 15.1.0, SVG Export Plug-In . SVG Version: 6.00 Build 0)  -->
<!DOCTYPE svg PUBLIC "-//W3C//DTD SVG 1.1 Basic//EN" "http://www.w3.org/Graphics/SVG/1.1/DTD/svg11-basic.dtd">
<svg version="1.1" baseProfile="basic" id="Calque_1"
	 xmlns="http://www.w3.org/2000/svg" xmlns:xlink="http://www.w3.org/1999/xlink" x="0px" y="0px" width="400px" height="70px"
	 viewBox="0 0 400 70" xml:space="preserve">
<g id="transformeur_1_">
	<path fill="#231F20" d="M12.813,48.311V23.493h5.459v19.889h12.374v4.929H12.813z"/>
	<path fill="#231F20" d="M34.757,48.311V23.493h18.684v4.857H40.146v5.035h11.699v4.857H40.146v5.211h13.472v4.857H34.757z"/>
	<path fill="#231F20" d="M80.385,28.527v19.783h-5.46V28.527h-7.551v-5.035h20.563v5.035H80.385z"/>
	<path fill="#231F20" d="M107.188,48.311l-5.318-7.941h-4.29v7.941h-5.46V23.493h11.345c2.955,0,5.252,0.722,6.896,2.163
		c1.643,1.442,2.464,3.451,2.464,6.027v0.071c0,2.009-0.491,3.646-1.471,4.91c-0.982,1.266-2.264,2.193-3.847,2.783l6.063,8.863
		H107.188z M107.294,31.966c0-1.182-0.378-2.068-1.134-2.659c-0.756-0.59-1.808-0.886-3.155-0.886H97.58v7.126h5.531
		c1.347,0,2.381-0.319,3.103-0.957c0.72-0.638,1.081-1.489,1.081-2.553V31.966z"/>
	<path fill="#231F20" d="M136.224,48.311l-2.269-5.565h-10.494l-2.269,5.565h-5.566l10.636-24.995h5.035l10.635,24.995H136.224z
		 M128.708,29.875l-3.297,8.047h6.594L128.708,29.875z"/>
	<path fill="#231F20" d="M163.168,48.311l-12.019-15.777v15.777h-5.388V23.493h5.034l11.628,15.281V23.493h5.389v24.818H163.168z"/>
	<path fill="#231F20" d="M191.039,44.25c-0.446,0.958-1.068,1.763-1.867,2.412c-0.799,0.65-1.752,1.145-2.858,1.488
		c-1.107,0.343-2.334,0.515-3.681,0.515c-1.892,0-3.747-0.325-5.567-0.975c-1.82-0.651-3.474-1.649-4.963-2.996l3.226-3.865
		c1.134,0.924,2.299,1.655,3.493,2.198c1.193,0.545,2.5,0.816,3.918,0.816c1.135,0,2.014-0.207,2.641-0.62
		c0.625-0.414,0.939-0.987,0.939-1.722v-0.07c0-0.354-0.065-0.667-0.195-0.938c-0.131-0.271-0.38-0.526-0.747-0.762
		c-0.367-0.236-0.877-0.474-1.528-0.711c-0.652-0.235-1.498-0.484-2.541-0.744c-1.256-0.307-2.394-0.649-3.413-1.028
		c-1.019-0.377-1.884-0.845-2.595-1.4c-0.712-0.556-1.262-1.246-1.653-2.074c-0.392-0.827-0.587-1.855-0.587-3.084v-0.071
		c0-1.135,0.211-2.156,0.634-3.067c0.422-0.909,1.015-1.695,1.778-2.358c0.764-0.661,1.675-1.169,2.735-1.524
		c1.058-0.355,2.228-0.532,3.503-0.532c1.82,0,3.493,0.272,5.018,0.816c1.524,0.543,2.924,1.324,4.201,2.339l-2.836,4.113
		c-1.111-0.756-2.198-1.353-3.262-1.791c-1.064-0.437-2.127-0.656-3.19-0.656c-1.065,0-1.862,0.208-2.394,0.621
		c-0.532,0.414-0.797,0.928-0.797,1.542v0.071c0,0.402,0.077,0.75,0.231,1.046c0.154,0.296,0.432,0.562,0.835,0.797
		c0.403,0.237,0.954,0.461,1.652,0.674c0.7,0.213,1.582,0.461,2.649,0.744c1.255,0.331,2.375,0.704,3.359,1.117
		c0.983,0.413,1.813,0.909,2.488,1.488c0.675,0.579,1.185,1.259,1.528,2.039c0.343,0.781,0.515,1.714,0.515,2.8v0.072
		C191.708,42.2,191.484,43.294,191.039,44.25z"/>
	<path fill="#231F20" d="M201.918,28.421v5.353h11.842v4.928h-11.842v9.608h-5.458V23.493h18.897v4.928H201.918z"/>
	<path fill="#02CBD2" d="M244.001,40.884c-0.661,1.546-1.577,2.906-2.747,4.077c-1.171,1.169-2.564,2.091-4.184,2.764
		c-1.619,0.675-3.386,1.011-5.301,1.011s-3.675-0.336-5.283-1.011c-1.606-0.673-2.994-1.583-4.166-2.729
		c-1.168-1.146-2.079-2.493-2.729-4.041c-0.651-1.549-0.976-3.208-0.976-4.981v-0.071c0-1.772,0.331-3.432,0.992-4.981
		c0.662-1.548,1.578-2.907,2.749-4.076c1.17-1.17,2.563-2.092,4.183-2.766c1.619-0.674,3.386-1.01,5.3-1.01
		c1.916,0,3.677,0.336,5.282,1.01c1.608,0.673,2.998,1.584,4.166,2.729c1.171,1.147,2.08,2.494,2.73,4.042
		c0.65,1.548,0.975,3.208,0.975,4.98v0.071C244.993,37.674,244.663,39.336,244.001,40.884z M227.336,28.787v14.482l11.953-7.367
		L227.336,28.787z"/>
	<path fill="#231F20" d="M264.918,48.311l-5.317-7.941h-4.29v7.941h-5.459V23.493h11.346c2.953,0,5.252,0.722,6.894,2.163
		c1.643,1.442,2.465,3.451,2.465,6.027v0.071c0,2.009-0.49,3.646-1.471,4.91c-0.981,1.266-2.264,2.193-3.848,2.783l6.063,8.863
		H264.918z M265.025,31.966c0-1.182-0.379-2.068-1.135-2.659c-0.758-0.59-1.807-0.886-3.155-0.886h-5.425v7.126h5.53
		c1.349,0,2.381-0.319,3.104-0.957c0.72-0.638,1.081-1.489,1.081-2.553V31.966z"/>
	<path fill="#231F20" d="M294.912,48.311V32.108l-6.984,10.601h-0.143l-6.914-10.494v16.096h-5.388V23.493h5.886l6.523,10.494
		l6.523-10.494h5.885v24.818H294.912z"/>
	<path fill="#231F20" d="M306.257,48.311V23.493h18.684v4.857h-13.295v5.035h11.7v4.857h-11.7v5.211h13.473v4.857H306.257z"/>
	<path fill="#231F20" d="M350.485,42.426c-0.508,1.395-1.235,2.558-2.181,3.491c-0.945,0.933-2.093,1.631-3.439,2.091
		c-1.347,0.463-2.849,0.693-4.502,0.693c-3.332,0-5.956-0.923-7.871-2.766s-2.871-4.599-2.871-8.262V23.493h5.46v14.041
		c0,2.032,0.472,3.563,1.418,4.59c0.945,1.028,2.256,1.543,3.935,1.543s2.99-0.497,3.937-1.489c0.944-0.993,1.417-2.482,1.417-4.467
		V23.493h5.461v14.004C351.248,39.388,350.993,41.031,350.485,42.426z"/>
	<path fill="#231F20" d="M371.881,48.311l-5.317-7.941h-4.29v7.941h-5.46V23.493h11.346c2.953,0,5.252,0.722,6.896,2.163
		c1.642,1.442,2.464,3.451,2.464,6.027v0.071c0,2.009-0.491,3.646-1.472,4.91c-0.981,1.266-2.264,2.193-3.847,2.783l6.062,8.863
		H371.881z M371.987,31.966c0-1.182-0.378-2.068-1.135-2.659c-0.756-0.59-1.808-0.886-3.155-0.886h-5.424v7.126h5.53
		c1.348,0,2.381-0.319,3.102-0.957c0.722-0.638,1.082-1.489,1.082-2.553V31.966z"/>
</g>
<rect x="30.725" y="14.315" fill="#02CBD2" width="36.649" height="0.818"/>
<rect x="30.725" y="56.547" fill="#02CBD2" width="36.649" height="0.817"/>
<rect x="377.407" y="14.261" fill="#02CBD2" width="14.599" height="0.817"/>
<rect x="377.407" y="56.547" fill="#02CBD2" width="14.599" height="0.817"/>
</svg>
