<?xml version="1.0" encoding="utf-8"?>
<!-- Generator: Adobe Illustrator 15.1.0, SVG Export Plug-In . SVG Version: 6.00 Build 0)  -->
<!DOCTYPE svg PUBLIC "-//W3C//DTD SVG 1.1 Basic//EN" "http://www.w3.org/Graphics/SVG/1.1/DTD/svg11-basic.dtd">
<svg version="1.1" baseProfile="basic" xmlns="http://www.w3.org/2000/svg" xmlns:xlink="http://www.w3.org/1999/xlink" x="0px"
	 y="0px" width="36px" height="36px" viewBox="0 0 36 36" xml:space="preserve">
<g id="onair" display="none">
	<g display="inline">
		<path d="M2.281,24.286c-0.995,0-1.799-0.802-1.799-1.795v-8.983c0-0.993,0.804-1.797,1.799-1.797c0.989,0,1.793,0.804,1.793,1.797
			v8.983C4.074,23.481,3.271,24.286,2.281,24.286L2.281,24.286z M2.281,24.286"/>
		<path d="M7.519,28.78c-0.991,0-1.795-0.805-1.795-1.798V9.018c0-0.993,0.804-1.799,1.795-1.799c0.993,0,1.797,0.806,1.797,1.799
			v17.965C9.315,27.976,8.512,28.78,7.519,28.78L7.519,28.78z M7.519,28.78"/>
		<path d="M12.759,26.531c-0.994,0-1.798-0.805-1.798-1.794V11.263c0-0.993,0.804-1.798,1.798-1.798s1.798,0.805,1.798,1.798v13.475
			C14.557,25.727,13.753,26.531,12.759,26.531L12.759,26.531z M12.759,26.531"/>
		<path d="M18,31.026c-0.994,0-1.798-0.805-1.798-1.799V6.771c0-0.992,0.804-1.798,1.798-1.798c0.989,0,1.794,0.806,1.794,1.798
			v22.456C19.794,30.222,18.989,31.026,18,31.026L18,31.026z M18,31.026"/>
		<path d="M23.241,35.518c-0.994,0-1.799-0.805-1.799-1.799V2.281c0-0.994,0.805-1.799,1.799-1.799c0.989,0,1.794,0.805,1.794,1.799
			v31.438C25.035,34.713,24.23,35.518,23.241,35.518L23.241,35.518z M23.241,35.518"/>
		<path d="M28.479,28.78c-0.99,0-1.795-0.805-1.795-1.798V9.018c0-0.993,0.805-1.799,1.795-1.799c0.993,0,1.798,0.806,1.798,1.799
			v17.965C30.276,27.976,29.472,28.78,28.479,28.78L28.479,28.78z M28.479,28.78"/>
		<path d="M33.719,22.04c-0.993,0-1.797-0.804-1.797-1.795v-4.491c0-0.993,0.804-1.798,1.797-1.798c0.994,0,1.799,0.805,1.799,1.798
			v4.491C35.518,21.236,34.713,22.04,33.719,22.04L33.719,22.04z M33.719,22.04"/>
	</g>
</g>
<g id="casque">
	<g>
		<path fill="#02CBD2" d="M17.993,1.971C8.188,2.018,0.209,10.032,0.209,19.838c0,2.978,0.747,5.913,2.159,8.515v-4.724
			c0-0.871,0.309-1.678,0.853-2.371c-0.045-0.471-0.068-0.945-0.068-1.42c0-8.191,6.664-14.885,14.84-14.924
			c8.191,0.039,14.855,6.732,14.855,14.924c0,0.526-0.029,1.051-0.085,1.571c0.473,0.659,0.739,1.411,0.739,2.22v4.963
			c1.498-2.659,2.289-5.686,2.289-8.754C35.791,10.032,27.813,2.018,17.993,1.971L17.993,1.971z M17.993,1.971"/>
		<path fill="#11B8C0" d="M3.464,22.866c-0.075,0.246-0.116,0.502-0.116,0.763V30.3c0,2.061,2.452,3.729,5.478,3.729h2.307V19.901
			H8.826C6.185,19.901,3.981,21.174,3.464,22.866L3.464,22.866z M3.464,22.866"/>
		<path fill="#11B8C0" d="M32.521,30.3v-6.671c0-0.16-0.018-0.319-0.047-0.474c-0.342-1.835-2.643-3.254-5.432-3.254h-2.307v14.128
			h2.307C30.067,34.029,32.521,32.36,32.521,30.3L32.521,30.3z M32.521,30.3"/>
	</g>
</g>
<g id="suis_ns" display="none">
	<g display="inline">
		<g>
			<defs>
				<rect id="SVGID_1_" x="0.484" y="2.651" width="35.885" height="32.176"/>
			</defs>
			<clipPath id="SVGID_2_">
				<use xlink:href="#SVGID_1_"  display="none" overflow="visible"/>
			</clipPath>
			<path clip-path="url(#SVGID_2_)" fill-rule="evenodd" clip-rule="evenodd" fill="#02CBD2" d="M18.058,34.109
				c-34.29-18.705-9.486-41.964,0-26.298C27.551-7.854,52.355,15.404,18.058,34.109L18.058,34.109z M18.058,34.109"/>
		</g>
	</g>
</g>
<g id="favoris" display="none">
	<g display="inline">
		<g>
			<defs>
				<rect id="SVGID_3_" x="0.498" y="1.209" width="35.004" height="33.582"/>
			</defs>
			<use xlink:href="#SVGID_3_"  overflow="visible" fill="#FFFFFF"/>
			<clipPath id="SVGID_4_">
				<use xlink:href="#SVGID_3_"  overflow="visible"/>
			</clipPath>
			<path clip-path="url(#SVGID_4_)" fill="#FFFFFF" d="M35.071,15.074c0.385-0.338,0.528-0.872,0.366-1.356
				c-0.163-0.485-0.6-0.825-1.11-0.862l-10.163-0.759c-0.472-0.035-0.885-0.329-1.071-0.763l-4.036-9.359
				c-0.203-0.468-0.667-0.771-1.178-0.766c-0.51,0.005-0.968,0.314-1.162,0.788l-3.862,9.433c-0.179,0.438-0.586,0.739-1.057,0.783
				L1.649,13.159c-0.509,0.047-0.939,0.395-1.093,0.882c-0.152,0.487,0.001,1.019,0.391,1.349l7.777,6.589
				c0.361,0.307,0.522,0.786,0.418,1.247L6.906,33.17c-0.112,0.499,0.084,1.016,0.501,1.313c0.417,0.296,0.969,0.313,1.405,0.045
				l8.668-5.362c0.401-0.248,0.908-0.253,1.315-0.012l8.767,5.2c0.439,0.26,0.992,0.232,1.401-0.072
				c0.41-0.304,0.6-0.825,0.478-1.321l-2.418-9.9c-0.112-0.46,0.039-0.944,0.394-1.255L35.071,15.074z M35.071,15.074"/>
		</g>
	</g>
</g>
<g id="qui_sommes_ns" display="none">
	<g display="inline">
		<g>
			<path d="M25.185,3.889H10.815c-5.875,0-10.654,4.78-10.654,10.654S4.94,25.196,10.815,25.196h5.092v5.675
				c0,0.504,0.3,0.953,0.765,1.146c0.152,0.062,0.311,0.094,0.475,0.094c0.332,0,0.642-0.128,0.874-0.36l6.601-6.555h0.563
				c5.875,0,10.654-4.779,10.654-10.653S31.06,3.889,25.185,3.889L25.185,3.889z M24.552,19.355H11.449
				c-0.892,0-1.617-0.725-1.617-1.617c0-0.892,0.725-1.618,1.617-1.618h13.103c0.892,0,1.617,0.727,1.617,1.618
				C26.169,18.631,25.443,19.355,24.552,19.355L24.552,19.355z M24.552,12.913H11.449c-0.892,0-1.617-0.727-1.617-1.618
				s0.725-1.617,1.617-1.617h13.103c0.892,0,1.617,0.726,1.617,1.617S25.443,12.913,24.552,12.913L24.552,12.913z M24.552,12.913"/>
		</g>
	</g>
</g>
<g id="qui_sommes_ns_-_copie" display="none">
	<g display="inline">
		<path fill="#02CBD2" d="M30.177,5.822C26.925,2.57,22.601,0.779,18,0.779c-4.599,0-8.925,1.791-12.177,5.043
			C2.57,9.075,0.779,13.4,0.779,18c0,4.601,1.791,8.925,5.044,12.177C9.075,33.431,13.4,35.221,18,35.221
			c4.601,0,8.925-1.79,12.177-5.044c3.254-3.252,5.044-7.576,5.044-12.177C35.221,13.401,33.431,9.075,30.177,5.822L30.177,5.822z
			 M8.475,14.978c0-2.313,1.881-4.193,4.192-4.193s4.192,1.881,4.192,4.193c0,0.694-0.563,1.258-1.257,1.258
			s-1.259-0.563-1.259-1.258c0-0.925-0.751-1.678-1.677-1.678c-0.924,0-1.677,0.753-1.677,1.678c0,0.694-0.563,1.258-1.257,1.258
			C9.038,16.235,8.475,15.672,8.475,14.978L8.475,14.978z M27.03,19.827c-0.017,0.067-0.431,1.674-1.748,3.273
			C24.062,24.583,21.807,26.35,18,26.35s-6.061-1.767-7.282-3.249c-1.316-1.6-1.73-3.206-1.748-3.273
			c-0.063-0.251-0.007-0.517,0.151-0.72c0.159-0.204,0.403-0.323,0.662-0.323h16.435c0.258,0,0.503,0.119,0.662,0.323
			C27.037,19.311,27.094,19.576,27.03,19.827L27.03,19.827z M26.269,16.235c-0.695,0-1.259-0.563-1.259-1.258
			c0-0.925-0.752-1.678-1.677-1.678c-0.924,0-1.677,0.753-1.677,1.678c0,0.694-0.563,1.258-1.258,1.258
			c-0.696,0-1.258-0.563-1.258-1.258c0-2.313,1.88-4.193,4.192-4.193s4.192,1.881,4.192,4.193
			C27.525,15.672,26.963,16.235,26.269,16.235L26.269,16.235z M26.269,16.235"/>
	</g>
</g>
<g id="_x2B_" display="none">
	<g display="inline">
		<path fill="#FFFFFF" d="M32.265,14.813H21.176V3.735c0-1.755-1.418-3.177-3.17-3.177c-1.756,0-3.17,1.422-3.17,3.177v11.089H3.739
			c-1.752,0-3.178,1.422-3.178,3.174c0,0.878,0.353,1.681,0.927,2.254c0.573,0.578,1.37,0.942,2.243,0.942h11.104v11.07
			c0,0.878,0.35,1.672,0.923,2.247c0.574,0.574,1.366,0.931,2.244,0.931c1.752,0,3.174-1.427,3.174-3.178V21.19h11.089
			c1.752,0,3.174-1.433,3.174-3.188C35.438,16.25,34.017,14.813,32.265,14.813L32.265,14.813z M32.265,14.813"/>
	</g>
</g>
</svg>
